#N canvas 951 174 450 664 10;
#X obj 107 77 oscparse;
#X obj 265 82 netsend 9000;
#X obj 94 393 noteout;
#X obj 107 108 list trim;
#X obj 107 192 unpack;
#X msg 89 270 127;
#X msg 133 366 1;
#X floatatom 51 269 5 0 0 0 - - -;
#X obj 74 329 *;
#X obj 107 145 route sequenced;
#X obj 59 175 print;
#X obj 107 37 netreceive -b -u 9000;
#X connect 0 0 3 0;
#X connect 0 0 10 0;
#X connect 3 0 9 0;
#X connect 4 0 7 0;
#X connect 4 0 5 0;
#X connect 4 1 2 0;
#X connect 5 0 8 1;
#X connect 6 0 2 2;
#X connect 7 0 8 0;
#X connect 8 0 2 1;
#X connect 9 0 4 0;
#X connect 11 0 0 0;
